<?xml version="1.0" encoding="UTF-8"?>
<svg width="300mm" height="130mm" version="1.1" viewBox="0 0 300 130" xmlns="http://www.w3.org/2000/svg" xmlns:cc="http://creativecommons.org/ns#" xmlns:dc="http://purl.org/dc/elements/1.1/" xmlns:rdf="http://www.w3.org/1999/02/22-rdf-syntax-ns#">
 <metadata>
  <rdf:RDF>
   <cc:Work rdf:about="">
    <dc:format>image/svg+xml</dc:format>
    <dc:type rdf:resource="http://purl.org/dc/dcmitype/StillImage"/>
    <dc:title/>
   </cc:Work>
  </rdf:RDF>
 </metadata>
 <g fill="#002c5c">
  <path d="m157.23 40.024c0-0.75694 0.42681-1.1651 1.2211-1.1651h19.346c0.79133 0 1.2191 0.4082 1.2191 1.1651v0.87349c0 11.945-7.4506 20.278-19.48 20.278-11.175 0-21.799-6.8181-21.799-20.977 0-13.751 10.747-20.976 21.982-20.976 8.0005 0 14.29 3.9031 17.589 8.274 0.18246 0.23361 0.30386 0.52476 0.30386 0.81592 0 0.29117-0.18284 0.63943-0.61031 1.0486l-3.7864 3.2047c-0.36752 0.29209-0.73243 0.46577-1.0376 0.46577-0.36752 0-0.73344-0.23361-1.0376-0.64132-3.1756-3.9607-6.5945-6.0588-11.725-6.0588-6.7775 0-13.251 4.6025-13.251 13.867 0 8.9148 6.4733 13.868 13.313 13.868 5.6786 0 9.7068-2.6814 10.93-8.0993h-11.955c-0.79428 0-1.2211-0.4082-1.2211-1.1651z"/>
  <path d="m184.69 50.395c0 6.5845 4.0297 10.779 11.175 10.779 3.9076 0 5.9214-0.64038 8.5481-2.3879v0.63991c0 0.75741 0.4278 1.1651 1.221 1.1651h5.1306c0.7928 0 1.2206-0.40773 1.2206-1.1651v-25.054c0-0.75694-0.42782-1.1651-1.2206-1.1651h-5.1306c-0.79324 0-1.221 0.4082-1.221 1.1651v13.169c0 2.621-0.36529 3.9031-1.8329 5.3019-1.2814 1.2817-2.9303 1.9211-5.0668 1.9211-3.4199 0-5.2508-1.7465-5.2508-5.0102v-15.382c0-0.75694-0.42879-1.1651-1.2211-1.1651h-5.1306c-0.79424 0-1.221 0.4082-1.221 1.1651z"/>
  <path d="m218.59 59.426c0 0.75883 0.4273 1.1651 1.2211 1.1651h5.1282c0.79328 0 1.2211-0.40631 1.2211-1.1651v-25.055c0-0.75647-0.4278-1.1651-1.2211-1.1651h-5.1282c-0.79376 0-1.2211 0.40867-1.2211 1.1651z"/>
  <path d="m222.37 18.333c-2.9555 0-5.2394 2.1793-5.2394 4.9999 0 2.8201 2.2839 4.9994 5.2394 4.9994 2.956 0 5.2399-2.1793 5.2399-4.9994 0-2.8206-2.2839-4.9999-5.2399-4.9999"/>
  <path d="m253.55 48.064c0 1.4577-0.36493 3.0882-1.5262 4.4874-1.2211 1.5724-3.235 2.2128-5.3735 2.2128-4.0906 0-6.8997-3.0872-6.8997-7.8063 0-5.1277 3.3576-7.9247 7.327-7.9247 1.7112 0 3.4802 0.63943 4.8858 2.0976 1.1598 1.1651 1.5866 2.3303 1.5866 4.1367zm0.48961 11.362c0.42632 0.8735 0.67111 1.1651 1.5871 1.1651h4.3368c0.79328 0 1.1592-0.40678 1.1592-1.1651v-39.621c0-0.75836-0.4283-1.1661-1.2211-1.1661h-5.1301c-0.79376 0-1.2216 0.40773-1.2216 1.1661v15.208c-2.0144-1.6904-4.5183-2.3897-7.4496-2.3897-7.5708 0-14.167 5.2443-14.167 14.275 0 9.4981 6.5342 14.275 13.434 14.275 3.6642 0 6.2889-0.93107 8.2444-2.6205z"/>
  <path d="m273.96 44.156c0.6103-2.7432 3.3423-6.3037 7.8384-6.4538 4.0342-0.13497 7.2983 3.0112 7.5816 6.4538zm17.012 8.8351c-0.3094-0.2959-0.55838-0.41246-0.80516-0.41246-0.312 0-0.62167 0.17696-0.93274 0.53091-1.9219 1.9546-4.5455 2.2911-6.8675 2.2911-3.9693 0-7.3962-1.8437-8.2409-5.8351h21.26c0.8056 0 1.2408-0.41434 1.2408-1.1835v-1.7763c0-6.7488-3.9619-14.563-14.765-14.563-8.8418 0-15.139 6.0975-15.139 14.859 0 9.3523 6.9105 14.503 14.977 14.503 3.7453 0 8.1296-0.21849 12.226-4.1372 0.24872-0.23594 0.3734-0.47332 0.3734-0.70928 0-0.23735-0.12473-0.47427-0.31014-0.6517z"/>
  <path d="m150.01 104.06v-26.57h4.0925c8.4877 0 14.839 3.4954 14.839 13.285 0 9.7892-6.2908 13.285-14.839 13.285zm-7.9373 5.9427c0 0.75789 0.42732 1.1651 1.2226 1.1651h11.478c11.788 0 22.595-5.6511 22.595-20.393 0-14.626-10.807-20.393-22.595-20.393h-11.478c-0.79526 0-1.2226 0.4082-1.2226 1.1651z"/>
  <path d="m205.12 97.531c0 4.662-2.8076 7.8077-7.4501 7.8077-4.6405 0-7.4496-3.1457-7.4496-7.8077 0-5.0683 3.4194-7.9238 7.4496-7.9238 4.0307 0 7.4501 2.8555 7.4501 7.9238m-22.715-0.05803c0 9.5561 6.9615 14.275 15.265 14.275 8.3052 0 15.268-4.7186 15.268-14.275 0-8.8563-6.7172-14.274-15.268-14.274-8.5481 0-15.265 5.418-15.265 14.274"/>
  <path d="m240.16 99.279c0 1.5733-0.24426 2.9136-1.7112 4.2542-1.4035 1.2232-2.8695 1.8046-5.1301 1.8046-4.3957 0-7.4482-2.855-7.4482-7.9228 0-4.2533 3.1148-7.8082 7.4482-7.8082 2.4436 0 4.2147 0.87397 5.3754 2.2137 1.2814 1.4577 1.4659 2.5063 1.4659 4.4293zm-20.03 19.111c-0.30496 0.29116-0.42732 0.52476-0.42732 0.75693 0 0.17605 0.18505 0.46718 0.48765 0.75882 2.9941 2.68 6.5965 5.2443 13.679 5.2443 8.1825 0 13.862-4.2533 13.862-13.752v-26.454c0-0.75599-0.42881-1.1651-1.2211-1.1651h-5.1287c-0.79572 0-1.2216 0.40914-1.2216 1.1651v0.81687c-2.1988-1.6904-4.092-2.5639-7.8176-2.5639-7.0223 0-14.288 4.9527-14.288 14.275 0 9.2645 6.6564 14.275 14.351 14.275 4.0307 0 5.9823-0.75647 7.7553-1.9792v2.3303c0 3.9626-1.8348 6.6426-6.2908 6.6426-4.3957 0-6.2276-1.5729-8.6712-4.0787-0.24279-0.23312-0.48765-0.3511-0.73096-0.3511-0.30571 0-0.55046 0.11798-0.79528 0.3511z"/>
  <path d="m253.89 104.19c-0.55738 0.36385-0.79723 0.69417-0.85116 1.1774-0.0296 0.28834 0.0541 0.48323 0.30127 0.86029 2.8675 4.1957 6.6905 6.039 12.512 6.039 7.0218 0 11.05-4.477 11.05-9.2536 0-4.8366-2.7003-6.9795-9.4017-8.8563-3.8269-0.85699-5.1267-1.6309-5.4921-3.0188-0.31755-1.2015 0.73294-2.7342 2.732-3.0523 1.7666-0.28125 3.6395 0.35393 6.2819 2.4341 0.43473 0.30014 0.67411 0.34968 0.97726 0.34968 0.36752 0 0.65631-0.20197 1.0386-0.52476l2.5223-2.4568c0.32162-0.32327 0.3616-0.58234 0.36641-0.81593 7e-3 -0.37233-0.15175-0.62716-0.54946-0.991-2.871-2.1557-5.3729-3.654-10.565-3.6705-4.5792-0.01519-10.012 3.4129-10.012 8.7738 0 4.1953 3.3591 6.7587 8.4278 8.0998 5.0683 1.3968 6.2963 1.9008 6.5104 3.8706 0.1995 1.8442-1.5994 2.9886-3.457 3.1689-2.864 0.27937-4.9061-0.6989-7.1657-3.6714-0.36752-0.46484-0.73247-0.69843-1.1583-0.69843-0.30682 0-0.46685 0.0311-0.97775 0.29066z"/>
  <path d="m113.5 69.849c0-4.936-3.9995-8.9385-8.9352-8.9385-4.939 0-8.9385 4.0025-8.9385 8.9385 0 4.9357 3.9995 8.9385 8.9385 8.9385 4.9357 0 8.9352-4.0028 8.9352-8.9385"/>
  <path d="m108.01 40.958c0-7.6097-6.1659-13.78-13.775-13.78-7.6143 0-13.78 6.1705-13.78 13.78 0 7.6092 6.1659 13.78 13.78 13.78 7.6092 0 13.775-6.171 13.775-13.78"/>
  <path d="m29.82 48.333c0-7.0742-5.732-12.81-12.806-12.81-7.0784 0-12.81 5.7362-12.81 12.81 0 7.0737 5.732 12.81 12.81 12.81 7.0737 0 12.806-5.7367 12.806-12.81"/>
  <path d="m73.425 23.168c0-10.283-8.3319-18.621-18.614-18.621-10.289 0-18.621 8.3381-18.621 18.621 0 10.282 8.3319 18.621 18.621 18.621 10.282 0 18.614-8.3388 18.614-18.621"/>
  <path d="m55.397 49.13c-16.299 0-29.185 20.174-34.946 30.168-6.317 10.96-6.317 22.184 0.52343 30.126v7e-3c3.43 4.1757 7.9316 5.9757 12.855 5.7191 0.1496-7e-3 0.31653-0.0177 0.49241-0.0365 0.97346-0.0766 1.9622-0.231 2.9637-0.46394 4.5212-0.85456 12.705-5.6542 17.872-5.6542 6.025 0 14.128 6.9112 23.489 6.1618v-9.6e-4c4.2608-0.19521 8.1339-2.0296 11.169-5.7252v-7e-3c6.8419-7.9418 6.8448-19.166 0.52634-30.126-5.7596-9.9937-18.646-30.168-34.944-30.168"/>
 </g>
</svg>
